<mxfile host="app.diagrams.net" modified="2024-06-24T16:14:16.713Z" agent="Mozilla/5.0 (Windows NT 10.0; Win64; x64) AppleWebKit/537.36 (KHTML, like Gecko) Chrome/126.0.0.0 Safari/537.36" version="21.6.2" etag="hoK0f2Qi8PyE3tnoDJJc" type="github">
  <diagram name="Page-1" id="KSHS9lqAblWIWkSjBohG">
    <mxGraphModel>
      <root>
        <mxCell id="0" />
        <mxCell id="1" parent="0" />
      </root>
    </mxGraphModel>
  </diagram>
</mxfile>
